<mxfile host="app.diagrams.net" modified="2023-12-01T11:59:02.637Z" agent="Mozilla/5.0 (Windows NT 10.0; Win64; x64; rv:109.0) Gecko/20100101 Firefox/119.0" version="22.1.5" etag="qZUrRINQ3TPqx9zkgh8i" type="github">
  <diagram name="第 1 页" id="Ks_WqYh9_LlSjnp3bexs">
    <mxGraphModel>
      <root>
        <mxCell id="0" />
        <mxCell id="1" parent="0" />
      </root>
    </mxGraphModel>
  </diagram>
</mxfile>
